<?xml version="1.0" encoding="UTF-8" standalone="no"?><!-- Generator: Gravit.io --><svg xmlns="http://www.w3.org/2000/svg" xmlns:xlink="http://www.w3.org/1999/xlink" style="isolation:isolate" viewBox="0 0 500 500" width="500pt" height="500pt"><defs><clipPath id="_clipPath_aWIAPhopbYV0n9pf0haRBLU0V57TuEYs"><rect width="500" height="500"/></clipPath></defs><g clip-path="url(#_clipPath_aWIAPhopbYV0n9pf0haRBLU0V57TuEYs)"><rect width="500" height="500" style="fill:rgb(226,0,26)"/><path d=" M 473.384 345.747 C 497.588 284.13 494.199 218.745 469.675 162.526 L 533.976 134.495 L 405.079 61.064 L 368.68 206.57 L 433.214 178.437 C 453.631 225.307 456.284 279.875 436.153 331.123 C 395.834 433.768 279.522 484.473 176.877 444.153 C 74.232 403.834 23.527 287.522 63.847 184.877 C 92.16 112.799 157.959 66.511 230.176 59.188 L 223.259 19.577 C 137.753 29.222 60.267 84.585 26.616 170.253 C -21.842 293.617 38.889 432.926 162.253 481.384 C 285.617 529.842 424.926 469.111 473.384 345.747 Z " fill="rgb(173,208,9)"/><text transform="matrix(1,0,0,1,684,685.327)" style="font-family:'Open Sans';font-weight:400;font-size:150px;font-style:normal;fill:#000000;stroke:none;">0x5</text><text transform="matrix(1,0,0,1,134.645,154.833)" style="font-family:'Open Sans';font-weight:400;font-size:50px;font-style:normal;fill:#000000;stroke:none;">01000010 </text><text transform="matrix(1,0,0,1,134.645,182.07)" style="font-family:'Open Sans';font-weight:400;font-size:50px;font-style:normal;fill:#000000;stroke:none;">01101001 </text><text transform="matrix(1,0,0,1,134.645,209.306)" style="font-family:'Open Sans';font-weight:400;font-size:50px;font-style:normal;fill:#000000;stroke:none;">01110100 </text><text transform="matrix(1,0,0,1,134.645,236.542)" style="font-family:'Open Sans';font-weight:400;font-size:50px;font-style:normal;fill:#000000;stroke:none;">01100011 </text><text transform="matrix(1,0,0,1,134.645,263.779)" style="font-family:'Open Sans';font-weight:400;font-size:50px;font-style:normal;fill:#000000;stroke:none;">01101000 </text><text transform="matrix(1,0,0,1,134.645,291.015)" style="font-family:'Open Sans';font-weight:400;font-size:50px;font-style:normal;fill:#000000;stroke:none;">01100001 </text><text transform="matrix(1,0,0,1,134.645,318.251)" style="font-family:'Open Sans';font-weight:400;font-size:50px;font-style:normal;fill:#000000;stroke:none;">01101110 </text><text transform="matrix(1,0,0,1,134.645,345.488)" style="font-family:'Open Sans';font-weight:400;font-size:50px;font-style:normal;fill:#000000;stroke:none;">01100111 </text><text transform="matrix(1,0,0,1,134.645,372.724)" style="font-family:'Open Sans';font-weight:400;font-size:50px;font-style:normal;fill:#000000;stroke:none;">01100101 </text><text transform="matrix(1,0,0,1,134.645,399.96)" style="font-family:'Open Sans';font-weight:400;font-size:50px;font-style:normal;fill:#000000;stroke:none;">01110010</text></g></svg>